<svg width="1440" height="1024" viewBox="0 0 1440 1024" fill="none" xmlns="http://www.w3.org/2000/svg">
<g opacity="0.1">
<path d="M-197 342H63L210 203.5H489L687.5 15V-110M-197 320.5H112.5L210 227.5H499.5L662 61.5V-110" stroke="url(#paint0_linear_0_1457)"/>
<path d="M-201.5 110H6.5L25 90.5H444.5L466 110H518.5L620 11V-105" stroke="url(#paint1_linear_0_1457)"/>
<path opacity="0.2" d="M-204 193.5H-84L-39.5 150H284L259 173.5H121.5L74.5 226.5H-204" stroke="url(#paint2_linear_0_1457)"/>
<path opacity="0.2" d="M-200.5 48.5H194.5L283 -37.5H557L596.5 -70V-100" stroke="url(#paint3_linear_0_1457)"/>
<path d="M-205 455H219.5L395.5 287.5H361L219.5 419.5H-205" stroke="url(#paint4_linear_0_1457)"/>
<path d="M1636 342H1376L1229 203.5H950L751.5 15V-110M1636 320.5H1326.5L1229 227.5H939.5L777 61.5V-110" stroke="url(#paint5_linear_0_1457)"/>
<path d="M1640.5 110H1432.5L1414 90.5H994.5L973 110H920.5L819 11V-105" stroke="url(#paint6_linear_0_1457)"/>
<path opacity="0.2" d="M1643 193.5H1523L1478.5 150H1155L1180 173.5H1317.5L1364.5 226.5H1643" stroke="url(#paint7_linear_0_1457)"/>
<path opacity="0.2" d="M1639.5 48.5H1244.5L1156 -37.5H882L842.5 -70V-100" stroke="url(#paint8_linear_0_1457)"/>
<path d="M1644 455H1219.5L1043.5 287.5H1078L1219.5 419.5H1644" stroke="url(#paint9_linear_0_1457)"/>
<path d="M-197 683H63L210 821.5H489L687.5 1010V1135M-197 704.5H112.5L210 797.5H499.5L662 963.5V1135" stroke="url(#paint10_linear_0_1457)"/>
<path d="M-201.5 915H6.5L25 934.5H444.5L466 915H518.5L620 1014V1130" stroke="url(#paint11_linear_0_1457)"/>
<path opacity="0.2" d="M-204 831.5H-84L-39.5 875H284L259 851.5H121.5L74.5 798.5H-204" stroke="url(#paint12_linear_0_1457)"/>
<path opacity="0.2" d="M-200.5 976.5H194.5L283 1062.5H557L596.5 1095V1125" stroke="url(#paint13_linear_0_1457)"/>
<path d="M-205 570H219.5L395.5 737.5H361L219.5 605.5H-205" stroke="url(#paint14_linear_0_1457)"/>
<path d="M1636 683H1376L1229 821.5H950L751.5 1010V1135M1636 704.5H1326.5L1229 797.5H939.5L777 963.5V1135" stroke="url(#paint15_linear_0_1457)"/>
<path d="M1640.5 915H1432.5L1414 934.5H994.5L973 915H920.5L819 1014V1130" stroke="url(#paint16_linear_0_1457)"/>
<path opacity="0.2" d="M1643 831.5H1523L1478.5 875H1155L1180 851.5H1317.5L1364.5 798.5H1643" stroke="url(#paint17_linear_0_1457)"/>
<path opacity="0.2" d="M1639.5 976.5H1244.5L1156 1062.5H882L842.5 1095V1125" stroke="url(#paint18_linear_0_1457)"/>
<path d="M1644 570H1219.5L1043.5 737.5H1078L1219.5 605.5H1644" stroke="url(#paint19_linear_0_1457)"/>
</g>
<defs>
<linearGradient id="paint0_linear_0_1457" x1="724.336" y1="525.742" x2="-94.0097" y2="43.6499" gradientUnits="userSpaceOnUse">
<stop offset="0.125748" stop-color="#926C15"/>
<stop offset="0.585687" stop-color="white"/>
<stop offset="0.78249" stop-color="#FFE169"/>
<stop offset="1" stop-color="#FFE169"/>
</linearGradient>
<linearGradient id="paint1_linear_0_1457" x1="654.212" y1="197.399" x2="213.502" y2="-309.54" gradientUnits="userSpaceOnUse">
<stop offset="0.125748" stop-color="#926C15"/>
<stop offset="0.585687" stop-color="white"/>
<stop offset="0.78249" stop-color="#FFE169"/>
<stop offset="1" stop-color="#FFE169"/>
</linearGradient>
<linearGradient id="paint2_linear_0_1457" x1="304.323" y1="257.598" x2="174.588" y2="8.45384" gradientUnits="userSpaceOnUse">
<stop offset="0.125748" stop-color="#926C15"/>
<stop offset="0.585687" stop-color="white"/>
<stop offset="0.78249" stop-color="#FFE169"/>
<stop offset="1" stop-color="#FFE169"/>
</linearGradient>
<linearGradient id="paint3_linear_0_1457" x1="629.692" y1="108.867" x2="354.582" y2="-335.634" gradientUnits="userSpaceOnUse">
<stop offset="0.125748" stop-color="#926C15"/>
<stop offset="0.585687" stop-color="white"/>
<stop offset="0.78249" stop-color="#FFE169"/>
<stop offset="1" stop-color="#FFE169"/>
</linearGradient>
<linearGradient id="paint4_linear_0_1457" x1="420.508" y1="523.09" x2="74.8003" y2="149.976" gradientUnits="userSpaceOnUse">
<stop offset="0.125748" stop-color="#926C15"/>
<stop offset="0.585687" stop-color="white"/>
<stop offset="0.78249" stop-color="#FFE169"/>
<stop offset="1" stop-color="#FFE169"/>
</linearGradient>
<linearGradient id="paint5_linear_0_1457" x1="714.664" y1="525.742" x2="1533.01" y2="43.6499" gradientUnits="userSpaceOnUse">
<stop offset="0.125748" stop-color="#926C15"/>
<stop offset="0.585687" stop-color="white"/>
<stop offset="0.78249" stop-color="#FFE169"/>
<stop offset="1" stop-color="#FFE169"/>
</linearGradient>
<linearGradient id="paint6_linear_0_1457" x1="784.788" y1="197.399" x2="1225.5" y2="-309.54" gradientUnits="userSpaceOnUse">
<stop offset="0.125748" stop-color="#926C15"/>
<stop offset="0.585687" stop-color="white"/>
<stop offset="0.78249" stop-color="#FFE169"/>
<stop offset="1" stop-color="#FFE169"/>
</linearGradient>
<linearGradient id="paint7_linear_0_1457" x1="1134.68" y1="257.598" x2="1264.41" y2="8.45384" gradientUnits="userSpaceOnUse">
<stop offset="0.125748" stop-color="#926C15"/>
<stop offset="0.585687" stop-color="white"/>
<stop offset="0.78249" stop-color="#FFE169"/>
<stop offset="1" stop-color="#FFE169"/>
</linearGradient>
<linearGradient id="paint8_linear_0_1457" x1="809.308" y1="108.867" x2="1084.42" y2="-335.634" gradientUnits="userSpaceOnUse">
<stop offset="0.125748" stop-color="#926C15"/>
<stop offset="0.585687" stop-color="white"/>
<stop offset="0.78249" stop-color="#FFE169"/>
<stop offset="1" stop-color="#FFE169"/>
</linearGradient>
<linearGradient id="paint9_linear_0_1457" x1="1018.49" y1="523.09" x2="1364.2" y2="149.976" gradientUnits="userSpaceOnUse">
<stop offset="0.125748" stop-color="#926C15"/>
<stop offset="0.585687" stop-color="white"/>
<stop offset="0.78249" stop-color="#FFE169"/>
<stop offset="1" stop-color="#FFE169"/>
</linearGradient>
<linearGradient id="paint10_linear_0_1457" x1="724.336" y1="499.258" x2="-94.0097" y2="981.35" gradientUnits="userSpaceOnUse">
<stop offset="0.125748" stop-color="#926C15"/>
<stop offset="0.585687" stop-color="white"/>
<stop offset="0.78249" stop-color="#FFE169"/>
<stop offset="1" stop-color="#FFE169"/>
</linearGradient>
<linearGradient id="paint11_linear_0_1457" x1="654.212" y1="827.601" x2="213.502" y2="1334.54" gradientUnits="userSpaceOnUse">
<stop offset="0.125748" stop-color="#926C15"/>
<stop offset="0.585687" stop-color="white"/>
<stop offset="0.78249" stop-color="#FFE169"/>
<stop offset="1" stop-color="#FFE169"/>
</linearGradient>
<linearGradient id="paint12_linear_0_1457" x1="304.323" y1="767.402" x2="174.588" y2="1016.55" gradientUnits="userSpaceOnUse">
<stop offset="0.125748" stop-color="#926C15"/>
<stop offset="0.585687" stop-color="white"/>
<stop offset="0.78249" stop-color="#FFE169"/>
<stop offset="1" stop-color="#FFE169"/>
</linearGradient>
<linearGradient id="paint13_linear_0_1457" x1="629.692" y1="916.133" x2="354.582" y2="1360.63" gradientUnits="userSpaceOnUse">
<stop offset="0.125748" stop-color="#926C15"/>
<stop offset="0.585687" stop-color="white"/>
<stop offset="0.78249" stop-color="#FFE169"/>
<stop offset="1" stop-color="#FFE169"/>
</linearGradient>
<linearGradient id="paint14_linear_0_1457" x1="420.508" y1="501.91" x2="74.8003" y2="875.024" gradientUnits="userSpaceOnUse">
<stop offset="0.125748" stop-color="#926C15"/>
<stop offset="0.585687" stop-color="white"/>
<stop offset="0.78249" stop-color="#FFE169"/>
<stop offset="1" stop-color="#FFE169"/>
</linearGradient>
<linearGradient id="paint15_linear_0_1457" x1="714.664" y1="499.258" x2="1533.01" y2="981.35" gradientUnits="userSpaceOnUse">
<stop offset="0.125748" stop-color="#926C15"/>
<stop offset="0.585687" stop-color="white"/>
<stop offset="0.78249" stop-color="#FFE169"/>
<stop offset="1" stop-color="#FFE169"/>
</linearGradient>
<linearGradient id="paint16_linear_0_1457" x1="784.788" y1="827.601" x2="1225.5" y2="1334.54" gradientUnits="userSpaceOnUse">
<stop offset="0.125748" stop-color="#926C15"/>
<stop offset="0.585687" stop-color="white"/>
<stop offset="0.78249" stop-color="#FFE169"/>
<stop offset="1" stop-color="#FFE169"/>
</linearGradient>
<linearGradient id="paint17_linear_0_1457" x1="1134.68" y1="767.402" x2="1264.41" y2="1016.55" gradientUnits="userSpaceOnUse">
<stop offset="0.125748" stop-color="#926C15"/>
<stop offset="0.585687" stop-color="white"/>
<stop offset="0.78249" stop-color="#FFE169"/>
<stop offset="1" stop-color="#FFE169"/>
</linearGradient>
<linearGradient id="paint18_linear_0_1457" x1="809.308" y1="916.133" x2="1084.42" y2="1360.63" gradientUnits="userSpaceOnUse">
<stop offset="0.125748" stop-color="#926C15"/>
<stop offset="0.585687" stop-color="white"/>
<stop offset="0.78249" stop-color="#FFE169"/>
<stop offset="1" stop-color="#FFE169"/>
</linearGradient>
<linearGradient id="paint19_linear_0_1457" x1="1018.49" y1="501.91" x2="1364.2" y2="875.024" gradientUnits="userSpaceOnUse">
<stop offset="0.125748" stop-color="#926C15"/>
<stop offset="0.585687" stop-color="white"/>
<stop offset="0.78249" stop-color="#FFE169"/>
<stop offset="1" stop-color="#FFE169"/>
</linearGradient>
</defs>
</svg>
