<svg width="177" height="20" viewBox="0 0 177 20" fill="none" xmlns="http://www.w3.org/2000/svg">
<g clip-path="url(#clip0_0_1627)">
<path d="M4.22281 19.8664H0.34139C0.153037 19.8664 0 19.7129 0 19.524V0.47436C0 0.285448 0.153037 0.131958 0.34139 0.131958H18.314C21.9129 0.131958 23.7123 1.93674 23.7123 5.52942V9.84739C23.7123 13.457 21.9129 15.2449 18.3308 15.2449H6.81604C6.62768 15.2449 6.47465 15.3984 6.47465 15.5873V19.5257C6.47465 19.7146 6.32161 19.8681 6.13326 19.8681H4.22113L4.22281 19.8664ZM17.2377 8.71224V6.69662C17.2377 5.92074 16.6104 5.2916 15.8368 5.2916H6.79754C6.60918 5.2916 6.45615 5.44509 6.45615 5.634V9.77487C6.45615 9.96378 6.60918 10.1173 6.79754 10.1173H15.8368C16.6104 10.1173 17.2377 9.48813 17.2377 8.71224Z" fill="url(#paint0_linear_0_1627)"/>
<path d="M35.3736 0.47436V19.5257C35.3736 19.7146 35.2205 19.8681 35.0322 19.8681H29.2555C29.0671 19.8681 28.9141 19.7146 28.9141 19.5257V0.47436C28.9141 0.285448 29.0671 0.131958 29.2555 0.131958H35.0322C35.2205 0.131958 35.3736 0.285448 35.3736 0.47436Z" fill="url(#paint1_linear_0_1627)"/>
<path d="M77.5906 15.2617V19.524C77.5906 19.7129 77.4376 19.8664 77.2492 19.8664H71.4557C71.2673 19.8664 71.1143 19.7129 71.1143 19.524V5.52942C71.1143 1.91987 72.9137 0.131958 76.4958 0.131958H89.4283C93.0272 0.131958 94.8098 1.93674 94.8098 5.52942V19.5072C94.8098 19.6961 94.6567 19.8496 94.4684 19.8496H88.6917C88.5033 19.8496 88.3503 19.6961 88.3503 19.5072V15.5856C88.3503 15.3967 88.1972 15.2432 88.0089 15.2432H77.5704L77.5872 15.26L77.5906 15.2617ZM88.3704 9.77487V6.69662C88.3704 5.92074 87.7432 5.2916 86.9696 5.2916H78.9898C78.2162 5.2916 77.5889 5.92074 77.5889 6.69662V9.77487C77.5889 9.96378 77.7419 10.1173 77.9303 10.1173H88.0291C88.2174 10.1173 88.3704 9.96378 88.3704 9.77487Z" fill="url(#paint2_linear_0_1627)"/>
<path d="M140.593 12.5799H143.851C144.039 12.5799 144.192 12.4264 144.192 12.2375V7.75925C144.192 7.57034 144.039 7.41685 143.851 7.41685H132.861C132.672 7.41685 132.519 7.26336 132.519 7.07445V5.63231C132.519 5.4434 132.672 5.28991 132.861 5.28991H148.055C148.243 5.28991 148.397 5.13642 148.397 4.94751V0.47436C148.397 0.285448 148.243 0.131958 148.055 0.131958H126.403C126.215 0.131958 126.062 0.285448 126.062 0.47436V19.5089C126.062 19.6978 126.215 19.8513 126.403 19.8513H148.055C148.243 19.8513 148.397 19.6978 148.397 19.5089V15.0306C148.397 14.8417 148.243 14.6882 148.055 14.6882H132.861C132.672 14.6882 132.519 14.5348 132.519 14.3458V12.8885C132.519 12.6996 132.672 12.5461 132.861 12.5461L140.592 12.5782L140.593 12.5799Z" fill="url(#paint3_linear_0_1627)"/>
<path d="M116.921 0.131958H99.6207C99.4323 0.131958 99.2793 0.285448 99.2793 0.47436V4.95257C99.2793 5.14148 99.4323 5.29497 99.6207 5.29497H106.877C107.066 5.29497 107.219 5.44846 107.219 5.63737V19.5274C107.219 19.7163 107.372 19.8698 107.56 19.8698H113.354C113.542 19.8698 113.695 19.7163 113.695 19.5274V5.63569C113.695 5.44677 113.848 5.29328 114.036 5.29328H121.276C121.465 5.29328 121.618 5.13979 121.618 4.95088V0.47436C121.618 0.285448 121.465 0.131958 121.276 0.131958H116.926H116.921Z" fill="url(#paint4_linear_0_1627)"/>
<path d="M65.9812 9.84739V5.52942C65.9812 1.91987 64.1817 0.131958 60.5996 0.131958H42.627C42.4387 0.131958 42.2856 0.285448 42.2856 0.47436V19.5257C42.2856 19.7146 42.4387 19.8681 42.627 19.8681H48.4206C48.6089 19.8681 48.762 19.7146 48.762 19.5257V15.5383C48.762 15.3494 48.915 15.1959 49.105 15.1959L54.0813 15.2263C54.1738 15.2263 54.2629 15.2651 54.3268 15.3343L58.3999 19.6742C58.5059 19.7855 58.6522 19.8496 58.8052 19.8496H65.66C65.9677 19.8496 66.1174 19.4751 65.8971 19.2626C64.9301 18.3332 63.0533 16.5419 62.1519 15.68C61.9501 15.4877 62.056 15.1487 62.3301 15.0998C64.7653 14.6697 65.9862 13.3625 65.9862 10.3753L65.9828 9.84739H65.9812ZM49.0849 5.27642H58.1241C58.8977 5.27642 59.525 5.90556 59.525 6.68145V8.69706C59.525 9.47295 58.8977 10.1021 58.1241 10.1021H49.0849C48.8965 10.1021 48.7435 9.9486 48.7435 9.75969V5.61882C48.7435 5.42991 48.8965 5.27642 49.0849 5.27642Z" fill="url(#paint5_linear_0_1627)"/>
<path d="M166.494 5.34389H160.092C159.903 5.34389 159.75 5.49738 159.75 5.68629V6.95975C159.75 7.14866 159.903 7.30215 160.092 7.30215H171.606C175.205 7.30215 176.988 8.80332 176.988 11.7888V15.3815C176.988 18.367 175.188 19.8681 171.606 19.8681H153.624C153.316 19.8681 153.166 19.492 153.388 19.2795L158.075 14.8097C158.179 14.7119 158.316 14.6562 158.459 14.6562H170.189C170.377 14.6562 170.53 14.5027 170.53 14.3138V13.0403C170.53 12.8514 170.377 12.6979 170.189 12.6979H158.674C155.075 12.6979 153.292 11.1968 153.292 8.21129V4.6186C153.292 1.63313 155.092 0.131958 158.674 0.131958H176.658C176.966 0.131958 177.116 0.508094 176.894 0.720619L172.284 5.12293L172.224 5.18196C172.119 5.28485 171.98 5.3422 171.833 5.3422H166.496L166.494 5.34389Z" fill="url(#paint6_linear_0_1627)"/>
</g>
<defs>
<linearGradient id="paint0_linear_0_1627" x1="15.3278" y1="23.0187" x2="15.9777" y2="3.1794" gradientUnits="userSpaceOnUse">
<stop offset="0.195" stop-color="#846018"/>
<stop offset="1" stop-color="#EBE0A0"/>
</linearGradient>
<linearGradient id="paint1_linear_0_1627" x1="33.0895" y1="23.0187" x2="35.4438" y2="3.44123" gradientUnits="userSpaceOnUse">
<stop offset="0.195" stop-color="#846018"/>
<stop offset="1" stop-color="#EBE0A0"/>
</linearGradient>
<linearGradient id="paint2_linear_0_1627" x1="86.4312" y1="23.0168" x2="87.0815" y2="3.17916" gradientUnits="userSpaceOnUse">
<stop offset="0.195" stop-color="#846018"/>
<stop offset="1" stop-color="#EBE0A0"/>
</linearGradient>
<linearGradient id="paint3_linear_0_1627" x1="140.499" y1="22.9991" x2="141.188" y2="3.17945" gradientUnits="userSpaceOnUse">
<stop offset="0.195" stop-color="#846018"/>
<stop offset="1" stop-color="#EBE0A0"/>
</linearGradient>
<linearGradient id="paint4_linear_0_1627" x1="113.719" y1="23.0207" x2="114.409" y2="3.18236" gradientUnits="userSpaceOnUse">
<stop offset="0.195" stop-color="#846018"/>
<stop offset="1" stop-color="#EBE0A0"/>
</linearGradient>
<linearGradient id="paint5_linear_0_1627" x1="57.616" y1="23.0187" x2="58.2658" y2="3.17939" gradientUnits="userSpaceOnUse">
<stop offset="0.195" stop-color="#846018"/>
<stop offset="1" stop-color="#EBE0A0"/>
</linearGradient>
<linearGradient id="paint6_linear_0_1627" x1="168.613" y1="23.0187" x2="169.263" y2="3.17939" gradientUnits="userSpaceOnUse">
<stop offset="0.195" stop-color="#846018"/>
<stop offset="1" stop-color="#EBE0A0"/>
</linearGradient>
<clipPath id="clip0_0_1627">
<rect width="177" height="19.7345" fill="white" transform="translate(0 0.132812)"/>
</clipPath>
</defs>
</svg>
