<svg width="236" height="45" viewBox="0 0 236 45" fill="none" xmlns="http://www.w3.org/2000/svg">
<g filter="url(#filter0_d_2032_76)">
<g clip-path="url(#clip0_2032_76)">
<path d="M41.974 6.17208L22.9908 0L4.026 6.17208L2 23.1724L12.1668 29.1071V37.2147L16.6496 39.3519V35.5502C16.3169 35.3614 16.0921 35.0039 16.0921 34.5941C16.0921 33.9871 16.5836 33.4953 17.1903 33.4953C17.797 33.4953 18.2885 33.9871 18.2885 34.5941C18.2885 35.0043 18.0637 35.3614 17.7311 35.5502V39.8676L22.4414 42.1134V32.9872C22.1087 32.7984 21.884 32.4409 21.884 32.031C21.884 31.424 22.3755 30.9323 22.9821 30.9323C23.5888 30.9323 24.0803 31.424 24.0803 32.031C24.0803 32.4413 23.8555 32.7984 23.5229 32.9872V42.1304L28.2332 39.8846V35.5502C27.9006 35.3614 27.6758 35.0039 27.6758 34.5941C27.6758 33.9871 28.1673 33.4953 28.774 33.4953C29.3806 33.4953 29.8721 33.9871 29.8721 34.5941C29.8721 35.0043 29.6474 35.3614 29.3147 35.5502V39.3692L33.8332 37.215V29.1074L44 23.1727L41.974 6.17208ZM8.33363 22.1243L6.94654 16.142L18.738 20.4219L20.1983 26.1123L8.33363 22.1243ZM37.6563 22.1243L25.792 26.1123L27.2523 20.4219L39.0437 16.142L37.6563 22.1243Z" fill="url(#paint0_linear_2032_76)"/>
</g>
</g>
<g filter="url(#filter1_d_2032_76)">
<g clip-path="url(#clip1_2032_76)">
<path d="M61.2228 30.7336H57.3414C57.153 30.7336 57 30.5801 57 30.3912V11.3415C57 11.1526 57.153 10.9991 57.3414 10.9991H75.314C78.9129 10.9991 80.7123 12.8039 80.7123 16.3966V20.7146C80.7123 24.3241 78.9129 26.112 75.3308 26.112H63.816C63.6277 26.112 63.4746 26.2655 63.4746 26.4544V30.3929C63.4746 30.5818 63.3216 30.7353 63.1333 30.7353H61.2211L61.2228 30.7336ZM74.2377 19.5794V17.5638C74.2377 16.7879 73.6104 16.1588 72.8368 16.1588H63.7975C63.6092 16.1588 63.4561 16.3123 63.4561 16.5012V20.6421C63.4561 20.831 63.6092 20.9845 63.7975 20.9845H72.8368C73.6104 20.9845 74.2377 20.3553 74.2377 19.5794Z" fill="url(#paint1_linear_2032_76)"/>
<path d="M92.3736 11.3415V30.3929C92.3736 30.5818 92.2205 30.7353 92.0322 30.7353H86.2555C86.0671 30.7353 85.9141 30.5818 85.9141 30.3929V11.3415C85.9141 11.1526 86.0671 10.9991 86.2555 10.9991H92.0322C92.2205 10.9991 92.3736 11.1526 92.3736 11.3415Z" fill="url(#paint2_linear_2032_76)"/>
<path d="M134.591 26.1289V30.3912C134.591 30.5801 134.438 30.7336 134.249 30.7336H128.456C128.267 30.7336 128.114 30.5801 128.114 30.3912V16.3966C128.114 12.7871 129.914 10.9991 133.496 10.9991H146.428C150.027 10.9991 151.81 12.8039 151.81 16.3966V30.3744C151.81 30.5633 151.657 30.7168 151.468 30.7168H145.692C145.503 30.7168 145.35 30.5633 145.35 30.3744V26.4528C145.35 26.2639 145.197 26.1104 145.009 26.1104H134.57L134.587 26.1272L134.591 26.1289ZM145.37 20.6421V17.5638C145.37 16.7879 144.743 16.1588 143.97 16.1588H135.99C135.216 16.1588 134.589 16.7879 134.589 17.5638V20.6421C134.589 20.831 134.742 20.9845 134.93 20.9845H145.029C145.217 20.9845 145.37 20.831 145.37 20.6421Z" fill="url(#paint3_linear_2032_76)"/>
<path d="M197.593 23.447H200.851C201.039 23.447 201.192 23.2936 201.192 23.1046V18.6264C201.192 18.4375 201.039 18.284 200.851 18.284H189.861C189.672 18.284 189.519 18.1305 189.519 17.9416V16.4995C189.519 16.3106 189.672 16.1571 189.861 16.1571H205.055C205.243 16.1571 205.397 16.0036 205.397 15.8147V11.3415C205.397 11.1526 205.243 10.9991 205.055 10.9991H183.403C183.215 10.9991 183.062 11.1526 183.062 11.3415V30.376C183.062 30.565 183.215 30.7184 183.403 30.7184H205.055C205.243 30.7184 205.397 30.565 205.397 30.376V25.8978C205.397 25.7089 205.243 25.5554 205.055 25.5554H189.861C189.672 25.5554 189.519 25.4019 189.519 25.213V23.7557C189.519 23.5668 189.672 23.4133 189.861 23.4133L197.592 23.4454L197.593 23.447Z" fill="url(#paint4_linear_2032_76)"/>
<path d="M173.921 10.9991H156.621C156.432 10.9991 156.279 11.1526 156.279 11.3415V15.8198C156.279 16.0087 156.432 16.1622 156.621 16.1622H163.877C164.066 16.1622 164.219 16.3156 164.219 16.5046V30.3946C164.219 30.5835 164.372 30.737 164.56 30.737H170.354C170.542 30.737 170.695 30.5835 170.695 30.3946V16.5029C170.695 16.314 170.848 16.1605 171.036 16.1605H178.276C178.465 16.1605 178.618 16.007 178.618 15.8181V11.3415C178.618 11.1526 178.465 10.9991 178.276 10.9991H173.926H173.921Z" fill="url(#paint5_linear_2032_76)"/>
<path d="M122.981 20.7146V16.3966C122.981 12.7871 121.182 10.9991 117.6 10.9991H99.627C99.4387 10.9991 99.2856 11.1526 99.2856 11.3415V30.3929C99.2856 30.5818 99.4387 30.7353 99.627 30.7353H105.421C105.609 30.7353 105.762 30.5818 105.762 30.3929V26.4055C105.762 26.2166 105.915 26.0631 106.105 26.0631L111.081 26.0935C111.174 26.0935 111.263 26.1323 111.327 26.2014L115.4 30.5413C115.506 30.6527 115.652 30.7168 115.805 30.7168H122.66C122.968 30.7168 123.117 30.3423 122.897 30.1298C121.93 29.2004 120.053 27.4091 119.152 26.5472C118.95 26.3549 119.056 26.0159 119.33 25.967C121.765 25.5369 122.986 24.2297 122.986 21.2425L122.983 20.7146H122.981ZM106.085 16.1436H115.124C115.898 16.1436 116.525 16.7727 116.525 17.5486V19.5642C116.525 20.3401 115.898 20.9693 115.124 20.9693H106.085C105.897 20.9693 105.743 20.8158 105.743 20.6269V16.486C105.743 16.2971 105.897 16.1436 106.085 16.1436Z" fill="url(#paint6_linear_2032_76)"/>
<path d="M223.494 16.2111H217.092C216.903 16.2111 216.75 16.3646 216.75 16.5535V17.8269C216.75 18.0159 216.903 18.1693 217.092 18.1693H228.606C232.205 18.1693 233.988 19.6705 233.988 22.656V26.2487C233.988 29.2341 232.188 30.7353 228.606 30.7353H210.624C210.316 30.7353 210.166 30.3592 210.388 30.1467L215.075 25.6769C215.179 25.579 215.316 25.5234 215.459 25.5234H227.189C227.377 25.5234 227.53 25.3699 227.53 25.181V23.9075C227.53 23.7186 227.377 23.5651 227.189 23.5651H215.674C212.075 23.5651 210.292 22.0639 210.292 19.0785V15.4858C210.292 12.5003 212.092 10.9991 215.674 10.9991H233.658C233.966 10.9991 234.116 11.3753 233.894 11.5878L229.284 15.9901L229.224 16.0491C229.119 16.152 228.98 16.2094 228.833 16.2094H223.496L223.494 16.2111Z" fill="url(#paint7_linear_2032_76)"/>
</g>
</g>
<defs>
<filter id="filter0_d_2032_76" x="0.858891" y="0" width="44.2822" height="44.4126" filterUnits="userSpaceOnUse" color-interpolation-filters="sRGB">
<feFlood flood-opacity="0" result="BackgroundImageFix"/>
<feColorMatrix in="SourceAlpha" type="matrix" values="0 0 0 0 0 0 0 0 0 0 0 0 0 0 0 0 0 0 127 0" result="hardAlpha"/>
<feOffset dy="1.14111"/>
<feGaussianBlur stdDeviation="0.570554"/>
<feComposite in2="hardAlpha" operator="out"/>
<feColorMatrix type="matrix" values="0 0 0 0 0.992157 0 0 0 0 0.823529 0 0 0 0 0.25098 0 0 0 0.1 0"/>
<feBlend mode="normal" in2="BackgroundImageFix" result="effect1_dropShadow_2032_76"/>
<feBlend mode="normal" in="SourceGraphic" in2="effect1_dropShadow_2032_76" result="shape"/>
</filter>
<filter id="filter1_d_2032_76" x="55.8589" y="11" width="179.282" height="22.0167" filterUnits="userSpaceOnUse" color-interpolation-filters="sRGB">
<feFlood flood-opacity="0" result="BackgroundImageFix"/>
<feColorMatrix in="SourceAlpha" type="matrix" values="0 0 0 0 0 0 0 0 0 0 0 0 0 0 0 0 0 0 127 0" result="hardAlpha"/>
<feOffset dy="1.14111"/>
<feGaussianBlur stdDeviation="0.570554"/>
<feComposite in2="hardAlpha" operator="out"/>
<feColorMatrix type="matrix" values="0 0 0 0 0.992157 0 0 0 0 0.823529 0 0 0 0 0.25098 0 0 0 0.1 0"/>
<feBlend mode="normal" in2="BackgroundImageFix" result="effect1_dropShadow_2032_76"/>
<feBlend mode="normal" in="SourceGraphic" in2="effect1_dropShadow_2032_76" result="shape"/>
</filter>
<linearGradient id="paint0_linear_2032_76" x1="45.7491" y1="-17.1264" x2="-2.27025" y2="-2.71507" gradientUnits="userSpaceOnUse">
<stop offset="0.125748" stop-color="#846018"/>
<stop offset="0.469294" stop-color="#F3DC91"/>
<stop offset="0.78249" stop-color="#C09D49"/>
<stop offset="1" stop-color="#EBE0A0"/>
</linearGradient>
<linearGradient id="paint1_linear_2032_76" x1="72.3278" y1="33.8859" x2="72.9777" y2="14.0466" gradientUnits="userSpaceOnUse">
<stop offset="0.195" stop-color="#846018"/>
<stop offset="1" stop-color="#EBE0A0"/>
</linearGradient>
<linearGradient id="paint2_linear_2032_76" x1="90.0895" y1="33.8859" x2="92.4438" y2="14.3084" gradientUnits="userSpaceOnUse">
<stop offset="0.195" stop-color="#846018"/>
<stop offset="1" stop-color="#EBE0A0"/>
</linearGradient>
<linearGradient id="paint3_linear_2032_76" x1="143.431" y1="33.8839" x2="144.081" y2="14.0464" gradientUnits="userSpaceOnUse">
<stop offset="0.195" stop-color="#846018"/>
<stop offset="1" stop-color="#EBE0A0"/>
</linearGradient>
<linearGradient id="paint4_linear_2032_76" x1="197.499" y1="33.8663" x2="198.188" y2="14.0466" gradientUnits="userSpaceOnUse">
<stop offset="0.195" stop-color="#846018"/>
<stop offset="1" stop-color="#EBE0A0"/>
</linearGradient>
<linearGradient id="paint5_linear_2032_76" x1="170.719" y1="33.8879" x2="171.409" y2="14.0495" gradientUnits="userSpaceOnUse">
<stop offset="0.195" stop-color="#846018"/>
<stop offset="1" stop-color="#EBE0A0"/>
</linearGradient>
<linearGradient id="paint6_linear_2032_76" x1="114.616" y1="33.8859" x2="115.266" y2="14.0466" gradientUnits="userSpaceOnUse">
<stop offset="0.195" stop-color="#846018"/>
<stop offset="1" stop-color="#EBE0A0"/>
</linearGradient>
<linearGradient id="paint7_linear_2032_76" x1="225.613" y1="33.8859" x2="226.263" y2="14.0466" gradientUnits="userSpaceOnUse">
<stop offset="0.195" stop-color="#846018"/>
<stop offset="1" stop-color="#EBE0A0"/>
</linearGradient>
<clipPath id="clip0_2032_76">
<rect width="42" height="42.1304" fill="white" transform="translate(2)"/>
</clipPath>
<clipPath id="clip1_2032_76">
<rect width="177" height="19.7345" fill="white" transform="translate(57 11)"/>
</clipPath>
</defs>
</svg>
